<svg id="Layer_1" data-name="Layer 1" xmlns="http://www.w3.org/2000/svg" xmlns:xlink="http://www.w3.org/1999/xlink" viewBox="0 0 12.06 12.06"><defs><linearGradient id="linear-gradient" x1="5.57" y1="5.04" x2="9.8" y2="5.04" gradientUnits="userSpaceOnUse"><stop offset="0" stop-color="#f9ed32"/><stop offset="1" stop-color="#f7991e"/></linearGradient><linearGradient id="linear-gradient-2" x1="1.51" y1="5.35" x2="8.24" y2="5.35" gradientUnits="userSpaceOnUse"><stop offset="1" stop-color="#808285"/><stop offset="1" stop-color="#262262"/></linearGradient><linearGradient id="linear-gradient-3" x1="2.92" y1="5.74" x2="10.18" y2="5.74" gradientUnits="userSpaceOnUse"><stop offset="0" stop-color="#808285"/><stop offset="1" stop-color="#d1d3d4"/></linearGradient></defs><title>02d</title><circle cx="7.69" cy="5.04" r="2.11" fill="url(#linear-gradient)"/><path d="M6.63,7.82a1.62,1.62,0,0,0,0-3.23,1.42,1.42,0,0,0-.58.12V4.57a1.76,1.76,0,0,0-3.51,0,2.51,2.51,0,0,0,0,.5v.06a1.4,1.4,0,0,0,.33,2.76Z" fill="url(#linear-gradient-2)"/><path d="M8.45,8.4a1.74,1.74,0,0,0,0-3.48A1.66,1.66,0,0,0,7.82,5V4.89A1.89,1.89,0,0,0,4,4.89a2.83,2.83,0,0,0,0,.54V5.5a1.51,1.51,0,0,0,.35,3Z" fill="url(#linear-gradient-3)"/></svg>