<svg id="Layer_1" data-name="Layer 1" xmlns="http://www.w3.org/2000/svg" xmlns:xlink="http://www.w3.org/1999/xlink" viewBox="0 0 12.06 12.06"><defs><linearGradient id="linear-gradient" x1="1.34" y1="2.68" x2="3.79" y2="2.68" gradientUnits="userSpaceOnUse"><stop offset="0" stop-color="#a7a9ac"/><stop offset="1" stop-color="#d1d3d4"/></linearGradient><linearGradient id="linear-gradient-2" x1="2.02" y1="5.86" x2="9.43" y2="5.86" gradientUnits="userSpaceOnUse"><stop offset="0" stop-color="#808285"/><stop offset="1" stop-color="#d1d3d4"/></linearGradient><linearGradient id="linear-gradient-3" x1="6.02" y1="7.44" x2="10.59" y2="7.44" xlink:href="#linear-gradient-2"/><linearGradient id="linear-gradient-4" x1="8.77" y1="3.67" x2="10.46" y2="3.67" xlink:href="#linear-gradient"/></defs><title>04d</title><path d="M3.2,3.58a.59.59,0,1,0,0-1.17.55.55,0,0,0-.21,0V2.4a.64.64,0,0,0-1.28,0,.82.82,0,0,0,0,.18v0a.51.51,0,0,0,.12,1Z" fill="url(#linear-gradient)"/><path d="M7.65,8.58A1.78,1.78,0,1,0,7.65,5,1.73,1.73,0,0,0,7,5.15V5A1.93,1.93,0,1,0,3.16,5a3,3,0,0,0,0,.55v.06a1.54,1.54,0,0,0,.36,3Z" fill="url(#linear-gradient-2)"/><path d="M9.5,9.11a1.09,1.09,0,0,0,0-2.18A1.14,1.14,0,0,0,9.1,7V6.91a1.19,1.19,0,1,0-2.37,0,1.93,1.93,0,0,0,0,.34v0A.94.94,0,0,0,6,8.21a1,1,0,0,0,1,.95Z" fill="url(#linear-gradient-3)"/><path d="M10.06,4.29a.41.41,0,0,0,0-.81.37.37,0,0,0-.15,0v0a.44.44,0,0,0-.88,0A.68.68,0,0,0,9,3.6v0A.35.35,0,0,0,8.77,4a.35.35,0,0,0,.35.35Z" fill="url(#linear-gradient-4)"/></svg>