<svg id="Layer_1" data-name="Layer 1" xmlns="http://www.w3.org/2000/svg" xmlns:xlink="http://www.w3.org/1999/xlink" viewBox="0 0 12.06 12.06"><defs><linearGradient id="linear-gradient" x1="2.02" y1="5.86" x2="9.43" y2="5.86" gradientUnits="userSpaceOnUse"><stop offset="0" stop-color="#808285"/><stop offset="1" stop-color="#d1d3d4"/></linearGradient><linearGradient id="linear-gradient-2" x1="6.02" y1="7.44" x2="10.59" y2="7.44" xlink:href="#linear-gradient"/><linearGradient id="linear-gradient-3" x1="4.96" y1="8.2" x2="6.09" y2="8.2" gradientUnits="userSpaceOnUse"><stop offset="0" stop-color="#39c4f3"/><stop offset="1" stop-color="#47a7b3"/></linearGradient><linearGradient id="linear-gradient-4" x1="6.44" y1="9.15" x2="7.16" y2="9.15" xlink:href="#linear-gradient-3"/><linearGradient id="linear-gradient-5" x1="5.55" y1="10" x2="6.28" y2="10" xlink:href="#linear-gradient-3"/><linearGradient id="linear-gradient-6" x1="4.76" y1="9.55" x2="5.22" y2="9.55" xlink:href="#linear-gradient-3"/></defs><title>09d</title><path d="M7.65,8.58A1.78,1.78,0,1,0,7.65,5,1.73,1.73,0,0,0,7,5.15V5A1.93,1.93,0,1,0,3.16,5a3,3,0,0,0,0,.55v.06a1.54,1.54,0,0,0,.36,3Z" fill="url(#linear-gradient)"/><path d="M9.5,9.11a1.09,1.09,0,0,0,0-2.18A1.14,1.14,0,0,0,9.1,7V6.91a1.19,1.19,0,1,0-2.37,0,1.93,1.93,0,0,0,0,.34v0A.94.94,0,0,0,6,8.21a1,1,0,0,0,1,.95Z" fill="url(#linear-gradient-2)"/><path d="M5,8.41a.6.6,0,0,0,.57.65.61.61,0,0,0,.56-.65s0-.42-.61-1.07A3.13,3.13,0,0,0,5,8.41Z" fill="url(#linear-gradient-3)"/><path d="M6.44,9.29a.38.38,0,0,0,.36.41.38.38,0,0,0,.36-.41s0-.28-.39-.69A1.88,1.88,0,0,0,6.44,9.29Z" fill="url(#linear-gradient-4)"/><path d="M5.55,10.14a.37.37,0,1,0,.73,0,1.14,1.14,0,0,0-.4-.69A2.06,2.06,0,0,0,5.55,10.14Z" fill="url(#linear-gradient-5)"/><path d="M4.76,9.64A.24.24,0,0,0,5,9.9a.25.25,0,0,0,.23-.26A.76.76,0,0,0,5,9.2,1.36,1.36,0,0,0,4.76,9.64Z" fill="url(#linear-gradient-6)"/></svg>