<svg id="Layer_1" data-name="Layer 1" xmlns="http://www.w3.org/2000/svg" xmlns:xlink="http://www.w3.org/1999/xlink" viewBox="0 0 12.06 12.06"><defs><linearGradient id="linear-gradient" x1="2.02" y1="5.86" x2="9.43" y2="5.86" gradientUnits="userSpaceOnUse"><stop offset="0" stop-color="#262262"/><stop offset="1" stop-color="#00aeef"/></linearGradient><linearGradient id="linear-gradient-2" x1="6.02" y1="7.44" x2="10.59" y2="7.44" xlink:href="#linear-gradient"/><linearGradient id="linear-gradient-3" x1="4.61" y1="9.5" x2="5.07" y2="9.5" gradientUnits="userSpaceOnUse"><stop offset="0" stop-color="#39c4f3"/><stop offset="1" stop-color="#47a7b3"/></linearGradient><linearGradient id="linear-gradient-4" x1="4.98" y1="8.18" x2="6.11" y2="8.18" xlink:href="#linear-gradient-3"/><linearGradient id="linear-gradient-5" x1="6.46" y1="9.13" x2="7.18" y2="9.13" xlink:href="#linear-gradient-3"/><linearGradient id="linear-gradient-6" x1="5.57" y1="9.98" x2="6.3" y2="9.98" xlink:href="#linear-gradient-3"/></defs><title>09n</title><path d="M7.65,8.58A1.78,1.78,0,1,0,7.65,5,1.73,1.73,0,0,0,7,5.15V5A1.93,1.93,0,1,0,3.16,5a3,3,0,0,0,0,.55v.06a1.54,1.54,0,0,0,.36,3Z" fill="url(#linear-gradient)"/><path d="M9.5,9.11a1.09,1.09,0,0,0,0-2.18A1.14,1.14,0,0,0,9.1,7V6.91a1.19,1.19,0,1,0-2.37,0,1.93,1.93,0,0,0,0,.34v0A.94.94,0,0,0,6,8.21a1,1,0,0,0,1,.95Z" fill="url(#linear-gradient-2)"/><path d="M4.61,9.59a.24.24,0,0,0,.23.26.25.25,0,0,0,.23-.26.73.73,0,0,0-.25-.44A1.36,1.36,0,0,0,4.61,9.59Z" fill="url(#linear-gradient-3)"/><path d="M5,8.39A.59.59,0,0,0,5.55,9a.61.61,0,0,0,.56-.65s0-.42-.61-1.07A3,3,0,0,0,5,8.39Z" fill="url(#linear-gradient-4)"/><path d="M6.46,9.26a.38.38,0,0,0,.36.42.39.39,0,0,0,.36-.42s0-.27-.39-.69A2,2,0,0,0,6.46,9.26Z" fill="url(#linear-gradient-5)"/><path d="M5.58,10.11a.38.38,0,0,0,.36.42.39.39,0,0,0,.36-.42s0-.27-.4-.68A1.93,1.93,0,0,0,5.58,10.11Z" fill="url(#linear-gradient-6)"/></svg>