<svg id="Layer_1" data-name="Layer 1" xmlns="http://www.w3.org/2000/svg" xmlns:xlink="http://www.w3.org/1999/xlink" viewBox="0 0 12.06 12.06"><defs><linearGradient id="linear-gradient" x1="5.27" y1="4.16" x2="9.49" y2="4.16" gradientUnits="userSpaceOnUse"><stop offset="0" stop-color="#f9ed32"/><stop offset="1" stop-color="#f7991e"/></linearGradient><linearGradient id="linear-gradient-2" x1="1.95" y1="5.22" x2="9.36" y2="5.22" gradientUnits="userSpaceOnUse"><stop offset="0" stop-color="#808285"/><stop offset="1" stop-color="#d1d3d4"/></linearGradient><linearGradient id="linear-gradient-3" x1="5.96" y1="6.8" x2="10.53" y2="6.8" xlink:href="#linear-gradient-2"/><linearGradient id="linear-gradient-4" x1="4.99" y1="7.38" x2="6.12" y2="7.38" gradientUnits="userSpaceOnUse"><stop offset="0" stop-color="#39c4f3"/><stop offset="1" stop-color="#47a7b3"/></linearGradient><linearGradient id="linear-gradient-5" x1="6.47" y1="8.33" x2="7.19" y2="8.33" xlink:href="#linear-gradient-4"/><linearGradient id="linear-gradient-6" x1="5.58" y1="9.18" x2="6.31" y2="9.18" xlink:href="#linear-gradient-4"/><linearGradient id="linear-gradient-7" x1="4.79" y1="8.73" x2="5.25" y2="8.73" xlink:href="#linear-gradient-4"/><linearGradient id="linear-gradient-8" x1="4.95" y1="9.76" x2="5.41" y2="9.76" xlink:href="#linear-gradient-4"/><linearGradient id="linear-gradient-9" x1="6.48" y1="9.56" x2="6.94" y2="9.56" xlink:href="#linear-gradient-4"/><linearGradient id="linear-gradient-10" x1="5.85" y1="10.3" x2="6.3" y2="10.3" xlink:href="#linear-gradient-4"/></defs><title>10d</title><circle cx="7.38" cy="4.16" r="2.11" fill="url(#linear-gradient)"/><path d="M7.59,7.94a1.78,1.78,0,0,0,0-3.55A1.71,1.71,0,0,0,7,4.51V4.36a1.93,1.93,0,0,0-3.86,0,2.49,2.49,0,0,0,.06.55V5a1.54,1.54,0,0,0,.35,3Z" fill="url(#linear-gradient-2)"/><path d="M9.44,8.48a1.1,1.1,0,0,0,0-2.19,1.14,1.14,0,0,0-.4.07V6.27a1.19,1.19,0,0,0-2.38,0,1.46,1.46,0,0,0,0,.34v0a.95.95,0,0,0,.22,1.87Z" fill="url(#linear-gradient-3)"/><path d="M5,7.6a.59.59,0,0,0,.56.64.61.61,0,0,0,.56-.64,1.76,1.76,0,0,0-.61-1.08A3,3,0,0,0,5,7.6Z" fill="url(#linear-gradient-4)"/><path d="M6.47,8.47a.37.37,0,0,0,.36.41.38.38,0,0,0,.36-.41s0-.28-.39-.69A1.88,1.88,0,0,0,6.47,8.47Z" fill="url(#linear-gradient-5)"/><path d="M5.59,9.32A.37.37,0,0,0,6,9.73a.38.38,0,0,0,.36-.41,1.14,1.14,0,0,0-.4-.69A1.91,1.91,0,0,0,5.59,9.32Z" fill="url(#linear-gradient-6)"/><path d="M4.79,8.82a.23.23,0,1,0,.46,0A.76.76,0,0,0,5,8.38,1.36,1.36,0,0,0,4.79,8.82Z" fill="url(#linear-gradient-7)"/><path d="M5,9.84a.23.23,0,1,0,.46,0,.72.72,0,0,0-.25-.43A1.27,1.27,0,0,0,5,9.84Z" fill="url(#linear-gradient-8)"/><path d="M6.48,9.65a.23.23,0,1,0,.46,0s0-.17-.25-.44A1.36,1.36,0,0,0,6.48,9.65Z" fill="url(#linear-gradient-9)"/><path d="M5.85,10.38a.24.24,0,0,0,.22.27.25.25,0,0,0,.23-.27s0-.17-.25-.43A1.22,1.22,0,0,0,5.85,10.38Z" fill="url(#linear-gradient-10)"/></svg>