<svg id="Layer_1" data-name="Layer 1" xmlns="http://www.w3.org/2000/svg" xmlns:xlink="http://www.w3.org/1999/xlink" viewBox="0 0 12.06 12.06"><defs><linearGradient id="linear-gradient" x1="7.21" y1="2.95" x2="8.61" y2="6.15" gradientUnits="userSpaceOnUse"><stop offset="0" stop-color="#f9ed32"/><stop offset="1" stop-color="#f7991e"/></linearGradient><linearGradient id="linear-gradient-2" x1="1.95" y1="5.22" x2="9.36" y2="5.22" gradientUnits="userSpaceOnUse"><stop offset="0" stop-color="#262262"/><stop offset="1" stop-color="#00aeef"/></linearGradient><linearGradient id="linear-gradient-3" x1="5.96" y1="6.8" x2="10.53" y2="6.8" xlink:href="#linear-gradient-2"/><linearGradient id="linear-gradient-4" x1="5.16" y1="7.48" x2="6.29" y2="7.48" gradientUnits="userSpaceOnUse"><stop offset="0" stop-color="#39c4f3"/><stop offset="1" stop-color="#47a7b3"/></linearGradient><linearGradient id="linear-gradient-5" x1="6.63" y1="8.43" x2="7.36" y2="8.43" xlink:href="#linear-gradient-4"/><linearGradient id="linear-gradient-6" x1="5.75" y1="9.28" x2="6.47" y2="9.28" xlink:href="#linear-gradient-4"/><linearGradient id="linear-gradient-7" x1="4.96" y1="8.83" x2="5.42" y2="8.83" xlink:href="#linear-gradient-4"/><linearGradient id="linear-gradient-8" x1="5.12" y1="9.85" x2="5.57" y2="9.85" xlink:href="#linear-gradient-4"/><linearGradient id="linear-gradient-9" x1="6.65" y1="9.66" x2="7.11" y2="9.66" xlink:href="#linear-gradient-4"/><linearGradient id="linear-gradient-10" x1="6.01" y1="10.39" x2="6.47" y2="10.39" xlink:href="#linear-gradient-4"/></defs><title>10n</title><path d="M8.7,4.05A1.57,1.57,0,0,1,7.13,2.48a1.51,1.51,0,0,1,.17-.7A1.77,1.77,0,1,0,9.37,3.89,1.5,1.5,0,0,1,8.7,4.05Z" fill="url(#linear-gradient)"/><path d="M7.59,7.94a1.78,1.78,0,0,0,0-3.55A1.71,1.71,0,0,0,7,4.51V4.36a1.93,1.93,0,0,0-3.86,0,2.49,2.49,0,0,0,.06.55V5a1.54,1.54,0,0,0,.35,3Z" fill="url(#linear-gradient-2)"/><path d="M9.44,8.48a1.1,1.1,0,0,0,0-2.19,1.14,1.14,0,0,0-.4.07V6.27a1.19,1.19,0,0,0-2.38,0,1.46,1.46,0,0,0,0,.34v0a.95.95,0,0,0,.22,1.87Z" fill="url(#linear-gradient-3)"/><path d="M5.16,7.69a.59.59,0,0,0,.56.65.61.61,0,0,0,.57-.65s0-.42-.62-1.07A3.17,3.17,0,0,0,5.16,7.69Z" fill="url(#linear-gradient-4)"/><path d="M6.63,8.56A.39.39,0,0,0,7,9a.4.4,0,0,0,.36-.42A1.17,1.17,0,0,0,7,7.87,2.06,2.06,0,0,0,6.63,8.56Z" fill="url(#linear-gradient-5)"/><path d="M5.75,9.41a.38.38,0,0,0,.36.42.39.39,0,0,0,.36-.42s0-.27-.39-.69A2,2,0,0,0,5.75,9.41Z" fill="url(#linear-gradient-6)"/><path d="M5,8.92a.24.24,0,0,0,.23.26.25.25,0,0,0,.23-.26.73.73,0,0,0-.25-.44A1.18,1.18,0,0,0,5,8.92Z" fill="url(#linear-gradient-7)"/><path d="M5.12,9.94a.24.24,0,0,0,.23.26.25.25,0,0,0,.22-.26.67.67,0,0,0-.24-.44A1.18,1.18,0,0,0,5.12,9.94Z" fill="url(#linear-gradient-8)"/><path d="M6.65,9.75a.24.24,0,0,0,.23.26.25.25,0,0,0,.23-.26.73.73,0,0,0-.25-.44A1.18,1.18,0,0,0,6.65,9.75Z" fill="url(#linear-gradient-9)"/><path d="M6,10.48a.23.23,0,1,0,.46,0A.76.76,0,0,0,6.22,10,1.36,1.36,0,0,0,6,10.48Z" fill="url(#linear-gradient-10)"/></svg>