<svg id="Layer_1" data-name="Layer 1" xmlns="http://www.w3.org/2000/svg" xmlns:xlink="http://www.w3.org/1999/xlink" viewBox="0 0 12.06 12.06"><defs><linearGradient id="linear-gradient" x1="8.08" y1="3.79" x2="9.47" y2="7" gradientUnits="userSpaceOnUse"><stop offset="0" stop-color="#f9ed32"/><stop offset="1" stop-color="#f7991e"/></linearGradient><linearGradient id="linear-gradient-2" x1="1.71" y1="5.56" x2="8.45" y2="5.56" gradientUnits="userSpaceOnUse"><stop offset="1" stop-color="#160d47"/><stop offset="1" stop-color="#262262"/></linearGradient><linearGradient id="linear-gradient-3" x1="3.13" y1="5.95" x2="10.39" y2="5.95" gradientUnits="userSpaceOnUse"><stop offset="0" stop-color="#262262"/><stop offset="1" stop-color="#00aeef"/></linearGradient><linearGradient id="linear-gradient-4" x1="6.35" y1="7.16" x2="7.74" y2="10.1" xlink:href="#linear-gradient"/></defs><title>11n</title><path d="M9.56,4.89A1.57,1.57,0,0,1,8,3.32a1.51,1.51,0,0,1,.17-.7,1.77,1.77,0,1,0,2.07,2.11A1.5,1.5,0,0,1,9.56,4.89Z" fill="url(#linear-gradient)"/><path d="M6.84,8a1.61,1.61,0,1,0-.59-3.11V4.78a1.75,1.75,0,0,0-3.5,0,2.45,2.45,0,0,0,0,.5v.06A1.4,1.4,0,0,0,3.11,8.1Z" fill="url(#linear-gradient-2)"/><path d="M8.65,8.61a1.74,1.74,0,1,0,0-3.47A1.66,1.66,0,0,0,8,5.26V5.11a1.89,1.89,0,1,0-3.78,0,2.42,2.42,0,0,0,.06.54v.06a1.51,1.51,0,0,0,.34,3Z" fill="url(#linear-gradient-3)"/><path d="M7,5.47,5.11,8s-.17.3.11.43l.9,0s.33-.1.25.26L6,9.94s0,.4.38.15L8.24,8s.2-.33-.09-.34H7.22S7,7.75,7,7.42l.36-1.76S7.41,5.19,7,5.47Z" fill="url(#linear-gradient-4)"/></svg>