<svg id="Layer_1" data-name="Layer 1" xmlns="http://www.w3.org/2000/svg" xmlns:xlink="http://www.w3.org/1999/xlink" viewBox="0 0 12.06 12.06"><defs><linearGradient id="linear-gradient" x1="1.06" y1="5.92" x2="10.94" y2="5.92" gradientUnits="userSpaceOnUse"><stop offset="0" stop-color="#9adbf9"/><stop offset="1" stop-color="#00aeef"/></linearGradient></defs><title>13n</title><path d="M10,6.18l.4-.32a.18.18,0,0,0,0-.25.18.18,0,0,0-.25,0l-.65.52h0l-.66-.07.82-.74a.18.18,0,0,0,0-.25.16.16,0,0,0-.24,0L8.4,6l-.71-.08.37-.3a.18.18,0,0,0,0-.25.19.19,0,0,0-.25,0l-.64.52-.83-.09.53-.72L7.67,5a.19.19,0,0,0,.16-.19.18.18,0,0,0-.19-.16l-.46,0L7.6,4.1l1.45-.22a.18.18,0,0,0,.14-.2A.17.17,0,0,0,9,3.53L7.89,3.7l.43-.57.73-.07a.17.17,0,0,0,.16-.19A.19.19,0,0,0,9,2.71l-.43,0L9,2.19A.2.2,0,1,0,8.69,2l-.45.6-.07-.47a.17.17,0,1,0-.34,0L8,3l-.39.53-.23-1a.16.16,0,0,0-.21-.13A.17.17,0,0,0,7,2.5l.29,1.36-.42.58L6.79,4a.18.18,0,0,0-.2-.14.17.17,0,0,0-.15.2l.13.78-.52.7-.37-.84L6,4a.17.17,0,0,0-.08-.23.18.18,0,0,0-.23.08l-.2.42-.28-.64.55-1.38A.16.16,0,0,0,5.68,2a.17.17,0,0,0-.23.09L5,3.18l-.28-.65.33-.69A.18.18,0,0,0,5,1.6a.17.17,0,0,0-.23.09l-.21.42-.28-.64A.19.19,0,0,0,4,1.36a.2.2,0,0,0-.1.27l.27.62-.4-.16a.18.18,0,0,0-.23.1.16.16,0,0,0,.1.22l.73.3.27.62L3.65,3a.17.17,0,0,0-.11.33l1.3.44.29.66-.41-.16a.17.17,0,0,0-.23.09.18.18,0,0,0,.1.23l.74.3.35.81-.88-.1L4.37,5a.19.19,0,0,0-.25,0,.19.19,0,0,0,0,.24l.26.38-.7-.08L2.73,4.31a.18.18,0,0,0-.25,0,.17.17,0,0,0,0,.24l.7.89-.71-.08L2,4.71a.17.17,0,0,0-.24,0,.18.18,0,0,0-.05.24L2,5.27l-.7-.08a.21.21,0,0,0-.22.18.2.2,0,0,0,.18.22L2,5.67,1.6,6a.18.18,0,0,0,0,.25.17.17,0,0,0,.24,0l.64-.51.67.07-.8.72a.17.17,0,0,0,0,.24.18.18,0,0,0,.25,0l1-.92.72.08L4,6.22a.17.17,0,0,0,.21.27L4.79,6l.85.1-.53.71-.76.08a.17.17,0,0,0-.16.19.17.17,0,0,0,.19.15l.45,0-.42.57L3,8a.18.18,0,0,0-.14.2.17.17,0,0,0,.2.15l1.08-.18-.42.58L3,8.8a.18.18,0,0,0,0,.35l.4,0L3,9.63a.2.2,0,0,0,.33.24l.43-.59.08.5a.18.18,0,0,0,.2.14.17.17,0,0,0,.15-.2L4.07,8.9h0l.39-.54L4.7,9.42a.17.17,0,0,0,.21.14A.19.19,0,0,0,5,9.35L4.74,8l.42-.57.07.44a.18.18,0,1,0,.35,0L5.45,7,6,6.33l.37.84L6,7.84A.17.17,0,0,0,6.32,8l.19-.4.28.65L6.26,9.59a.17.17,0,0,0,.09.23.19.19,0,0,0,.23-.1l.41-1,.28.65L7,10a.19.19,0,0,0,.08.24.19.19,0,0,0,.24-.09l.18-.39.26.61a.2.2,0,0,0,.27.1.2.2,0,0,0,.1-.26l-.28-.64.44.17a.18.18,0,0,0,.23-.1.16.16,0,0,0-.1-.22l-.77-.31L7.34,8.5l1,.34a.17.17,0,0,0,.11-.33L7.16,8.07l-.29-.66.43.17a.18.18,0,0,0,.23-.1.17.17,0,0,0-.1-.22L6.67,7l-.35-.8.9.11.43.6a.17.17,0,1,0,.28-.2l-.24-.35.7.08.9,1.12a.17.17,0,0,0,.25,0,.17.17,0,0,0,0-.24l-.68-.85.71.08.41.58a.17.17,0,1,0,.28-.2l-.22-.33.66.08a.2.2,0,0,0,.22-.18.21.21,0,0,0-.18-.22Z" fill="url(#linear-gradient)"/></svg>