<svg id="Layer_1" data-name="Layer 1" xmlns="http://www.w3.org/2000/svg" xmlns:xlink="http://www.w3.org/1999/xlink" viewBox="0 0 12.06 12.06"><defs><linearGradient id="linear-gradient" x1="6.43" y1="3.89" x2="7.96" y2="3.89" gradientUnits="userSpaceOnUse"><stop offset="0" stop-color="#00aeef"/><stop offset="0" stop-color="#a9c4d2"/><stop offset="1" stop-color="#6dcff6"/></linearGradient><linearGradient id="linear-gradient-2" x1="3.5" y1="4.7" x2="6.49" y2="4.7" xlink:href="#linear-gradient"/><linearGradient id="linear-gradient-3" x1="2.98" y1="5.71" x2="5.68" y2="5.71" xlink:href="#linear-gradient"/><linearGradient id="linear-gradient-4" x1="3.5" y1="7.7" x2="9.51" y2="7.7" xlink:href="#linear-gradient"/><linearGradient id="linear-gradient-5" x1="2.75" y1="6.73" x2="6.97" y2="6.73" xlink:href="#linear-gradient"/><linearGradient id="linear-gradient-6" x1="7.32" y1="6.72" x2="9.48" y2="6.72" xlink:href="#linear-gradient"/><linearGradient id="linear-gradient-7" x1="6.92" y1="4.72" x2="9.18" y2="4.72" xlink:href="#linear-gradient"/><linearGradient id="linear-gradient-8" x1="5.88" y1="5.73" x2="8.13" y2="5.73" xlink:href="#linear-gradient"/><linearGradient id="linear-gradient-9" x1="8.36" y1="5.72" x2="8.88" y2="5.72" xlink:href="#linear-gradient"/><linearGradient id="linear-gradient-10" x1="2.02" y1="6.77" x2="2.54" y2="6.77" xlink:href="#linear-gradient"/></defs><title>50d</title><rect x="6.43" y="3.63" width="1.53" height="0.52" rx="0.26" fill="url(#linear-gradient)"/><rect x="3.5" y="4.44" width="2.99" height="0.52" rx="0.26" fill="url(#linear-gradient-2)"/><rect x="2.98" y="5.45" width="2.7" height="0.52" rx="0.26" fill="url(#linear-gradient-3)"/><rect x="3.5" y="7.44" width="6" height="0.52" rx="0.26" fill="url(#linear-gradient-4)"/><rect x="2.75" y="6.47" width="4.22" height="0.52" rx="0.26" fill="url(#linear-gradient-5)"/><rect x="7.32" y="6.46" width="2.15" height="0.52" rx="0.26" fill="url(#linear-gradient-6)"/><rect x="6.92" y="4.46" width="2.25" height="0.52" rx="0.26" fill="url(#linear-gradient-7)"/><rect x="5.88" y="5.47" width="2.25" height="0.52" rx="0.26" fill="url(#linear-gradient-8)"/><rect x="8.36" y="5.46" width="0.52" height="0.52" rx="0.26" fill="url(#linear-gradient-9)"/><rect x="2.02" y="6.51" width="0.52" height="0.52" rx="0.26" fill="url(#linear-gradient-10)"/></svg>