<svg id="Layer_1" data-name="Layer 1" xmlns="http://www.w3.org/2000/svg" xmlns:xlink="http://www.w3.org/1999/xlink" viewBox="0 0 12.06 12.06"><defs><linearGradient id="linear-gradient" x1="1.03" y1="6.42" x2="10.5" y2="6.42" gradientUnits="userSpaceOnUse"><stop offset="0" stop-color="#262262"/><stop offset="1" stop-color="#00aeef"/></linearGradient><linearGradient id="linear-gradient-2" x1="0.95" y1="6.13" x2="10.42" y2="6.13" gradientUnits="userSpaceOnUse"><stop offset="0" stop-color="#00aeef"/><stop offset="1" stop-color="#68addf"/></linearGradient></defs><title>default</title><path d="M1.9,5.85a1.38,1.38,0,0,1,.85-1.91,2.4,2.4,0,0,1,1.54-.18,2.35,2.35,0,0,1,3.33-.32A2.1,2.1,0,0,1,9.88,4.83a1.54,1.54,0,0,1-.3,1s1.2.62.85,1.73c0,0-.27,1-1.85,1.11A2,2,0,0,1,6.87,9.92a2.5,2.5,0,0,1-1.61-.35A2.57,2.57,0,0,1,3,9.55,1.79,1.79,0,0,1,2.14,8.5S.87,8,1.05,6.87A1.4,1.4,0,0,1,1.9,5.85Z" fill="url(#linear-gradient)"/><path d="M1.82,5.56a1.38,1.38,0,0,1,.85-1.91,2.4,2.4,0,0,1,1.54-.18,2.36,2.36,0,0,1,3.33-.31A2.09,2.09,0,0,1,9.8,4.54a1.58,1.58,0,0,1-.3,1s1.2.62.85,1.72c0,0-.27,1-1.85,1.11A2,2,0,0,1,6.79,9.63a2.53,2.53,0,0,1-1.61-.34,2.55,2.55,0,0,1-2.27,0,1.79,1.79,0,0,1-.85-1S.79,7.73,1,6.59A1.43,1.43,0,0,1,1.82,5.56Z" fill="url(#linear-gradient-2)"/><path d="M4.45,4.53a1.57,1.57,0,0,0-.32.53s-.1.4.27.48c0,0,.56.15.64-.13s.21-.46.39-.48A.45.45,0,0,1,6,5.4a1.05,1.05,0,0,1-.48.66.94.94,0,0,0-.29.79s.08.64.41.6h.32a.63.63,0,0,0,.17-.35s.3-.62.54-.68a1.29,1.29,0,0,0,.6-1.1,1.25,1.25,0,0,0-1-1.25S4.92,3.81,4.45,4.53Z" fill="#fff"/><circle cx="5.7" cy="8" r="0.42" fill="#fff"/></svg>