<?xml version="1.0" ?><svg width="32px" height="32px" viewBox="0 0 32 32" xmlns="http://www.w3.org/2000/svg"><defs><style>.cls-1{fill:#5233ff;}.cls-2{fill:#ff64c8;}</style></defs><title/><g data-name="Layer 2" id="Layer_2"><path class="cls-1" d="M16,4A11,11,0,1,0,27,15,11,11,0,0,0,16,4Zm0,6a5,5,0,0,0-5,5,1,1,0,0,1-2,0,7,7,0,0,1,7-7,1,1,0,0,1,0,2Z"/><path class="cls-2" d="M28,27a3,3,0,0,1-3,3H7a3,3,0,0,1-.35-6,13.52,13.52,0,0,0,2.43,2,13,13,0,0,0,13.84,0,13.52,13.52,0,0,0,2.43-2A3,3,0,0,1,28,27Z"/></g></svg>