<?xml version="1.0" encoding="iso-8859-1"?>
<!-- Generator: Adobe Illustrator 19.0.0, SVG Export Plug-In . SVG Version: 6.00 Build 0)  -->
<svg version="1.1" id="Layer_1" xmlns="http://www.w3.org/2000/svg" xmlns:xlink="http://www.w3.org/1999/xlink" x="0px" y="0px"
	 viewBox="0 0 512 512" style="enable-background:new 0 0 512 512;" xml:space="preserve">
<g>
	<g>
		<path d="M256,48.516C141.593,48.516,48.516,141.593,48.516,256S141.593,463.484,256,463.484S463.484,370.407,463.484,256
			S370.407,48.516,256,48.516z M256,442.839c-103.023,0-186.839-83.815-186.839-186.839S152.977,69.161,256,69.161
			S442.839,152.977,442.839,256S359.023,442.839,256,442.839z"/>
	</g>
</g>
<g>
	<g>
		<path d="M256,0c-5.701,0-10.323,4.621-10.323,10.323v15.484c0,5.701,4.621,10.323,10.323,10.323s10.323-4.621,10.323-10.323
			V10.323C266.323,4.621,261.701,0,256,0z"/>
	</g>
</g>
<g>
	<g>
		<path d="M177.445,39.38l-5.925-14.305c-2.181-5.267-8.221-7.77-13.486-5.587c-5.267,2.181-7.768,8.219-5.587,13.486l5.925,14.305
			c1.647,3.975,5.491,6.375,9.541,6.375c1.315,0,2.654-0.254,3.945-0.789C177.125,50.685,179.626,44.647,177.445,39.38z"/>
	</g>
</g>
<g>
	<g>
		<path d="M100.27,85.671L81.579,66.98c-4.032-4.031-10.568-4.031-14.599,0c-4.031,4.032-4.031,10.568,0,14.599l18.691,18.69
			c2.015,2.016,4.658,3.023,7.299,3.023c2.643,0,5.284-1.008,7.3-3.022C104.301,96.238,104.301,89.702,100.27,85.671z"/>
	</g>
</g>
<g>
	<g>
		<path d="M47.278,158.372l-14.305-5.925c-5.265-2.18-11.304,0.319-13.486,5.587c-2.182,5.267,0.319,11.305,5.587,13.486
			l14.305,5.925c1.292,0.536,2.63,0.789,3.946,0.789c4.051,0,7.895-2.4,9.54-6.375C55.047,166.592,52.546,160.553,47.278,158.372z"
			/>
	</g>
</g>
<g>
	<g>
		<path d="M25.806,245.677H10.323C4.621,245.677,0,250.299,0,256s4.621,10.323,10.323,10.323h15.484
			c5.701,0,10.323-4.621,10.323-10.323S31.508,245.677,25.806,245.677z"/>
	</g>
</g>
<g>
	<g>
		<path d="M52.865,340.141c-2.181-5.267-8.221-7.769-13.486-5.587l-14.305,5.925c-5.267,2.181-7.769,8.219-5.587,13.486
			c1.648,3.975,5.491,6.375,9.541,6.375c1.316,0,2.654-0.253,3.945-0.789l14.305-5.925
			C52.545,351.447,55.046,345.408,52.865,340.141z"/>
	</g>
</g>
<g>
	<g>
		<path d="M100.529,411.471c-4.032-4.031-10.568-4.031-14.599,0L74.98,422.421c-4.031,4.032-4.031,10.568,0,14.599
			c2.015,2.016,4.658,3.023,7.299,3.023c2.643,0,5.284-1.008,7.3-3.023l10.949-10.949
			C104.56,422.039,104.56,415.502,100.529,411.471z"/>
	</g>
</g>
<g>
	<g>
		<path d="M171.69,459.538c-5.266-2.181-11.305,0.319-13.486,5.587l-10.94,26.412c-2.181,5.267,0.319,11.305,5.587,13.486
			c1.292,0.536,2.63,0.789,3.946,0.789c4.051,0,7.895-2.399,9.541-6.374l10.939-26.413
			C179.458,467.757,176.958,461.719,171.69,459.538z"/>
	</g>
</g>
<g>
	<g>
		<path d="M256,475.871c-5.701,0-10.323,4.621-10.323,10.323v15.484c0,5.701,4.621,10.323,10.323,10.323s10.323-4.621,10.323-10.323
			v-15.484C266.323,480.492,261.701,475.871,256,475.871z"/>
	</g>
</g>
<g>
	<g>
		<path d="M359.553,479.027l-5.925-14.305c-2.181-5.267-8.221-7.771-13.486-5.587c-5.267,2.181-7.768,8.219-5.587,13.486
			l5.925,14.305c1.648,3.975,5.491,6.375,9.541,6.375c1.315,0,2.654-0.253,3.945-0.789
			C359.233,490.332,361.734,484.294,359.553,479.027z"/>
	</g>
</g>
<g>
	<g>
		<path d="M437.021,422.421l-10.949-10.949c-4.032-4.031-10.568-4.031-14.599,0c-4.031,4.032-4.031,10.568,0,14.599l10.949,10.949
			c2.015,2.016,4.658,3.023,7.299,3.023s5.283-1.008,7.3-3.023C441.052,432.988,441.052,426.452,437.021,422.421z"/>
	</g>
</g>
<g>
	<g>
		<path d="M499.29,345.601l-26.27-10.882c-5.266-2.181-11.304,0.32-13.486,5.587c-2.182,5.267,0.319,11.305,5.587,13.486
			l26.27,10.882c1.292,0.536,2.63,0.789,3.946,0.789c4.051,0,7.894-2.399,9.54-6.375
			C507.059,353.821,504.557,347.782,499.29,345.601z"/>
	</g>
</g>
<g>
	<g>
		<path d="M501.677,245.677h-15.484c-5.701,0-10.323,4.621-10.323,10.323s4.621,10.323,10.323,10.323h15.484
			c5.701,0,10.323-4.621,10.323-10.323S507.379,245.677,501.677,245.677z"/>
	</g>
</g>
<g>
	<g>
		<path d="M492.512,158.034c-2.181-5.267-8.222-7.769-13.486-5.587l-14.305,5.925c-5.267,2.181-7.769,8.219-5.587,13.486
			c1.647,3.975,5.491,6.375,9.541,6.375c1.316,0,2.655-0.253,3.945-0.789l14.305-5.925
			C492.192,169.339,494.693,163.3,492.512,158.034z"/>
	</g>
</g>
<g>
	<g>
		<path d="M467.117,44.883c-4.032-4.031-10.568-4.031-14.599,0l-3.559,3.559c-4.031,4.032-4.031,10.568,0,14.599
			c2.015,2.016,4.658,3.023,7.299,3.023s5.284-1.008,7.3-3.023l3.559-3.559C471.148,55.45,471.148,48.914,467.117,44.883z"/>
	</g>
</g>
<g>
	<g>
		<path d="M440.847,71.153c-4.031-4.032-10.567-4.031-14.598,0l-13.906,13.907c-4.032,4.031-4.031,10.567,0,14.598
			c2.016,2.016,4.658,3.023,7.299,3.023s5.283-1.009,7.299-3.025l13.906-13.906C444.879,81.72,444.878,75.185,440.847,71.153z"/>
	</g>
</g>
<g>
	<g>
		<path d="M353.965,19.488c-5.265-2.182-11.304,0.319-13.486,5.587l-5.925,14.305c-2.181,5.267,0.319,11.305,5.587,13.486
			c1.292,0.536,2.63,0.789,3.946,0.789c4.051,0,7.895-2.4,9.54-6.375l5.925-14.305C361.733,27.708,359.233,21.669,353.965,19.488z"
			/>
	</g>
</g>
<g>
</g>
<g>
</g>
<g>
</g>
<g>
</g>
<g>
</g>
<g>
</g>
<g>
</g>
<g>
</g>
<g>
</g>
<g>
</g>
<g>
</g>
<g>
</g>
<g>
</g>
<g>
</g>
<g>
</g>
</svg>
