<?xml version="1.0" encoding="iso-8859-1"?>
<!-- Generator: Adobe Illustrator 19.0.0, SVG Export Plug-In . SVG Version: 6.00 Build 0)  -->
<svg version="1.1" id="Layer_1" xmlns="http://www.w3.org/2000/svg" xmlns:xlink="http://www.w3.org/1999/xlink" x="0px" y="0px"
	 viewBox="0 0 511.999 511.999" style="enable-background:new 0 0 511.999 511.999;" xml:space="preserve">
<g>
	<g>
		<path d="M416.953,208.776c-1.134,0-2.269,0.02-3.406,0.061c-5.475-40.621-40.384-72.053-82.47-72.053
			c-15.445,0-30.19,4.145-43.161,12.065c-21.077-22.814-50.383-35.719-81.797-35.719c-56.038,0-102.676,41.25-110.385,95.649
			c-0.23-0.002-0.459-0.003-0.688-0.003C42.638,208.776,0,251.413,0,303.822s42.638,95.047,95.046,95.047h321.907
			c52.409,0,95.045-42.639,95.045-95.047C511.999,251.413,469.362,208.776,416.953,208.776z M416.954,378.47H95.046
			c-41.161,0-74.648-33.487-74.648-74.648c0-41.161,33.487-74.648,74.648-74.648c2.827,0,5.68,0.171,8.719,0.525
			c2.81,0.328,5.619-0.525,7.771-2.35c2.153-1.826,3.453-4.461,3.593-7.28c2.389-48.529,42.355-86.542,90.989-86.542
			c28.314,0,54.539,12.837,71.951,35.22c1.664,2.139,4.11,3.528,6.801,3.86c2.688,0.329,5.401-0.42,7.535-2.091
			c11.147-8.723,24.518-13.334,38.671-13.334c34.611,0,62.791,28.158,62.819,62.77c0.002,2.971,1.299,5.794,3.554,7.73
			c2.253,1.936,5.238,2.796,8.178,2.346c3.728-0.566,7.537-0.854,11.325-0.854c41.161,0,74.648,33.487,74.648,74.648
			C491.602,344.983,458.115,378.47,416.954,378.47z"/>
	</g>
</g>
<g>
	<g>
		<path d="M221.033,345.56H93.504c-5.632,0-10.199,4.566-10.199,10.199c0,5.633,4.567,10.199,10.199,10.199h127.529
			c5.632,0,10.199-4.566,10.199-10.199C231.232,350.126,226.665,345.56,221.033,345.56z"/>
	</g>
</g>
<g>
	<g>
		<path d="M263.2,345.56h-5.142c-5.632,0-10.199,4.566-10.199,10.199c0,5.633,4.567,10.199,10.199,10.199h5.142
			c5.632,0,10.199-4.566,10.199-10.199C273.399,350.126,268.832,345.56,263.2,345.56z"/>
	</g>
</g>
<g>
</g>
<g>
</g>
<g>
</g>
<g>
</g>
<g>
</g>
<g>
</g>
<g>
</g>
<g>
</g>
<g>
</g>
<g>
</g>
<g>
</g>
<g>
</g>
<g>
</g>
<g>
</g>
<g>
</g>
</svg>
