<?xml version="1.0" encoding="iso-8859-1"?>
<!-- Generator: Adobe Illustrator 19.0.0, SVG Export Plug-In . SVG Version: 6.00 Build 0)  -->
<svg version="1.1" id="Layer_1" xmlns="http://www.w3.org/2000/svg" xmlns:xlink="http://www.w3.org/1999/xlink" x="0px" y="0px"
	 viewBox="0 0 511.999 511.999" style="enable-background:new 0 0 511.999 511.999;" xml:space="preserve">
<g>
	<g>
		<path d="M437.965,272.429c-0.133,0-0.266,0-0.399,0.001c-4.404-25.849-24.099-46.554-49.406-52.463
			c-3.632-14.917-11.874-28.449-23.621-38.572c-13.52-11.653-30.854-18.021-48.711-17.934
			c-5.232-30.709-32.043-54.165-64.211-54.165c-11.396,0-22.303,2.881-32.021,8.404C203.376,100.943,181.259,91.5,157.602,91.5
			c-42.69,0-78.341,30.884-85.217,71.979C32.319,164.357,0,197.223,0,237.495c0,40.823,33.212,74.035,74.035,74.035h56.478
			c-5.596,10.412-8.774,22.309-8.774,34.934c0,40.823,33.212,74.035,74.035,74.035h242.19c40.823,0,74.035-33.212,74.035-74.035
			C511.999,305.641,478.788,272.429,437.965,272.429z M74.035,291.134c-29.576-0.002-53.637-24.063-53.637-53.639
			c0-29.576,24.061-53.637,53.637-53.637c2.028,0,4.079,0.123,6.268,0.378c2.805,0.326,5.618-0.525,7.771-2.35
			c2.153-1.825,3.454-4.46,3.593-7.279c1.731-35.164,30.694-62.709,65.935-62.709c20.517,0,39.521,9.303,52.139,25.524
			c1.665,2.14,4.111,3.528,6.801,3.86c2.691,0.329,5.401-0.421,7.535-2.091c7.937-6.212,17.459-9.497,27.538-9.497
			c24.648,0,44.717,20.054,44.738,44.702c0.002,2.972,1.3,5.794,3.554,7.73c2.253,1.936,5.238,2.793,8.178,2.346
			c2.678-0.407,5.418-0.614,8.14-0.614c22.883,0,42.58,14.116,50.242,34.769c-8.897,0.926-17.394,3.643-25.135,8.042
			c-16.219-16.756-38.336-26.201-61.992-26.201c-42.69,0-78.341,30.884-85.218,71.979c-18.186,0.399-34.762,7.404-47.458,18.685
			H74.035z M437.965,400.102H195.774c-29.576,0-53.637-24.061-53.637-53.637s24.061-53.637,53.637-53.637
			c2.028,0,4.079,0.123,6.268,0.378c2.804,0.328,5.617-0.525,7.771-2.35c2.153-1.826,3.454-4.461,3.593-7.28
			c1.731-35.164,30.693-62.709,65.935-62.709c20.517,0,39.521,9.303,52.139,25.523c1.664,2.14,4.111,3.528,6.801,3.86
			c2.688,0.33,5.401-0.42,7.535-2.091c7.936-6.212,17.459-9.495,27.538-9.495c24.648,0,44.717,20.054,44.738,44.702
			c0.002,2.972,1.3,5.794,3.554,7.73c2.253,1.935,5.237,2.792,8.178,2.346c2.678-0.407,5.418-0.614,8.14-0.614
			c29.576,0,53.637,24.061,53.637,53.637C491.601,376.042,467.541,400.102,437.965,400.102z"/>
	</g>
</g>
<g>
	<g>
		<path d="M304.359,370.231H194.613c-5.633,0-10.199,4.566-10.199,10.199c0,5.633,4.566,10.199,10.199,10.199h109.744
			c5.633,0,10.199-4.566,10.199-10.199C314.557,374.797,309.992,370.231,304.359,370.231z"/>
	</g>
</g>
<g>
	<g>
		<path d="M340.644,370.231h-4.425c-5.633,0-10.199,4.566-10.199,10.199c0,5.633,4.566,10.199,10.199,10.199h4.425
			c5.633,0,10.199-4.566,10.199-10.199C350.843,374.797,346.277,370.231,340.644,370.231z"/>
	</g>
</g>
<g>
</g>
<g>
</g>
<g>
</g>
<g>
</g>
<g>
</g>
<g>
</g>
<g>
</g>
<g>
</g>
<g>
</g>
<g>
</g>
<g>
</g>
<g>
</g>
<g>
</g>
<g>
</g>
<g>
</g>
</svg>
